<?xml version="1.0" encoding="utf-8"?>
<!-- Generator: Adobe Illustrator 23.0.3, SVG Export Plug-In . SVG Version: 6.00 Build 0)  -->
<svg version="1.1" id="レイヤー_1" xmlns="http://www.w3.org/2000/svg" xmlns:xlink="http://www.w3.org/1999/xlink" x="0px"
	 y="0px" viewBox="0 0 512 512" style="enable-background:new 0 0 512 512;" xml:space="preserve">
<style type="text/css">
	.st0{fill:#F00E8A;}
</style>
<g>
	<g>
		<path class="st0" d="M438.3,70.8H73.1C40.5,70.8,14,97.2,14,129.9v249.6c0,32.6,26.5,59.1,59.1,59.1h365.1
			c32.6,0,59.1-26.5,59.1-59.1V130C497.4,97.3,470.9,70.8,438.3,70.8z M470.4,379.5c0,17.7-14.4,32.1-32.1,32.1H73.1
			c-17.7,0-32.1-14.4-32.1-32.1V130c0-17.7,14.4-32.1,32.1-32.1h365.1c17.7,0,32.1,14.4,32.1,32.1L470.4,379.5L470.4,379.5z"/>
		<path class="st0" d="M318.8,251.6l118.2-106c5.5-5,6-13.5,1-19.1c-5-5.5-13.5-6-19.1-1l-163,146.3l-31.8-28.4
			c-0.1-0.1-0.2-0.2-0.2-0.3c-0.7-0.7-1.4-1.3-2.2-1.9L92.3,125.3c-5.6-5-14.1-4.5-19.1,1.1c-5,5.6-4.5,14.1,1.1,19.1l119.6,106.9
			L74.8,364c-5.4,5.1-5.7,13.6-0.6,19.1c2.7,2.8,6.3,4.3,9.9,4.3c3.3,0,6.6-1.2,9.2-3.6l120.9-113.1l32.8,29.3
			c2.6,2.3,5.8,3.4,9,3.4c3.2,0,6.5-1.2,9-3.5l33.7-30.2l120.2,114.2c2.6,2.5,6,3.7,9.3,3.7c3.6,0,7.1-1.4,9.8-4.2
			c5.1-5.4,4.9-14-0.5-19.1L318.8,251.6z"/>
	</g>
</g>
</svg>
