<?xml version="1.0" encoding="utf-8"?>
<!-- Generator: Adobe Illustrator 23.0.3, SVG Export Plug-In . SVG Version: 6.00 Build 0)  -->
<svg version="1.1" id="レイヤー_1" xmlns="http://www.w3.org/2000/svg" xmlns:xlink="http://www.w3.org/1999/xlink" x="0px"
	 y="0px" viewBox="0 0 635.9 159" style="enable-background:new 0 0 635.9 159;" xml:space="preserve">
<style type="text/css">
	.st0{fill:#AAAAAA;}
	.st1{fill:#AAAAAA;stroke:#AAAAAA;stroke-width:4;stroke-linecap:round;stroke-linejoin:round;stroke-miterlimit:10;}
</style>
<g>
	<path class="st0" d="M106.5,82.3c16.4,14.5,29.2,26.1,38.3,34.6c1.3,1.2,2,2.7,2,4.4c0,1.8-0.6,3.3-1.8,4.6l-13.3,13.8
		c-1.2,1.3-2.6,2-4.3,2c-1.7,0.1-3.2-0.5-4.5-1.7c-12.2-11.6-24.9-23.3-38.3-35.1c-0.5-0.5-0.9-0.5-1.4,0
		c-18.9,16.5-40.1,29-63.5,37.4c-1.7,0.6-3.3,0.5-4.9-0.2c-1.6-0.7-2.8-1.9-3.6-3.5l-8-16.1c-0.7-1.5-0.7-3.1-0.1-4.6
		c0.6-1.5,1.7-2.6,3.3-3.2c20.2-7.8,38.4-18.7,54.4-32.6C76.8,68.1,87.9,54,94.1,39.5c0.2-0.5,0-0.7-0.7-0.7h-69
		c-1.8,0-3.3-0.6-4.4-1.8c-1.2-1.2-1.8-2.7-1.8-4.4V15.8c0-1.8,0.6-3.2,1.8-4.4c1.2-1.2,2.7-1.8,4.4-1.8h101.1
		c1.8,0,3.3,0.6,4.4,1.8c1.2,1.2,1.8,2.7,1.8,4.4v16.8c0,4.6-0.8,8.6-2.5,12.1c-6.1,13.2-13.8,25.4-22.9,36.5
		C105.9,81.4,106,81.8,106.5,82.3z"/>
	<path class="st0" d="M308.1,61c1.8,0,3.2,0.6,4.4,1.8c1.2,1.2,1.8,2.7,1.8,4.4v16c0,1.8-0.6,3.3-1.8,4.4c-1.2,1.2-2.7,1.8-4.4,1.8
		h-49.6c-0.7,0-1.1,0.3-1.1,0.9c-5.7,32.7-24.8,52.7-57.4,59.9c-1.8,0.4-3.5,0.1-5.1-0.8c-1.6-0.9-2.7-2.2-3.3-3.8l-5.5-15.8
		c-0.5-1.5-0.3-3,0.4-4.4c0.8-1.4,2-2.3,3.6-2.7c9.7-2.5,17.2-6.2,22.4-11.3c5.3-5,8.9-12.1,10.9-21.2c0.2-0.6,0-0.9-0.7-0.9H168
		c-1.8,0-3.3-0.6-4.4-1.8c-1.2-1.2-1.8-2.7-1.8-4.4v-16c0-1.8,0.6-3.2,1.8-4.4c1.2-1.2,2.7-1.8,4.4-1.8h56.7c0.6,0,0.9-0.3,0.9-0.9
		V43.3c0-0.6-0.4-0.9-1.1-0.9c-11.8,0.6-24.1,0.9-36.9,0.9c-1.8,0-3.3-0.6-4.5-1.8c-1.2-1.2-1.9-2.7-1.9-4.4v-16
		c0-1.8,0.6-3.2,1.9-4.4c1.2-1.2,2.7-1.8,4.5-1.8c23.9-0.1,43-1.1,57.3-2.8c14.3-1.8,27.8-4.8,40.4-9.2c1.7-0.6,3.3-0.5,4.9,0.3
		c1.6,0.8,2.6,1.9,3.1,3.5l5.5,15.8c0.6,1.5,0.5,3.1-0.2,4.7c-0.7,1.6-1.9,2.7-3.5,3.3c-11.7,4.3-23.3,7.2-34.9,8.9
		c-0.6,0-0.9,0.4-0.9,1.1v19.9c0,0.6,0.3,0.9,0.9,0.9H308.1z"/>
	<path class="st0" d="M435.4,112.4c1.8,0,3.2,0.6,4.4,1.8c1.2,1.2,1.8,2.7,1.8,4.4v12.8c0,1.8-0.6,3.3-1.8,4.4
		c-1.2,1.2-2.7,1.8-4.4,1.8H331.5c-1.8,0-3.3-0.6-4.4-1.8c-1.2-1.2-1.8-2.7-1.8-4.4v-12.8c0-1.8,0.6-3.2,1.8-4.4
		c1.2-1.2,2.7-1.8,4.4-1.8h55.1c0.6,0,0.9-0.3,0.9-0.9l2.1-45c0-0.6-0.3-0.9-0.9-0.9h-43.1c-1.8,0-3.3-0.6-4.4-1.8
		c-1.2-1.2-1.8-2.7-1.8-4.4V46.6c0-1.8,0.6-3.2,1.8-4.4c1.2-1.2,2.7-1.8,4.4-1.8h68.4c1.7,0,3.1,0.6,4.3,1.9
		c1.2,1.2,1.7,2.7,1.6,4.3l-3,64.9c0,0.6,0.2,0.9,0.7,0.9H435.4z"/>
</g>
<g>
	<path class="st1" d="M609,52.1c-11.1-7.9-23.5-10.6-35.4-8c-1.4-12.2-8-23.1-19-30.9c-18.9-13.5-45.2-9.3-58.6,9.5
		c-14.1,19.7-13.4,41.3-11.5,61.7c0.5,5.2,1.3,11.4,2.1,18l26.3-5.8c-0.6-5.1-1.2-9.9-1.5-13.8l0-0.2c-1.7-16-2.5-31.4,6.6-44.1
		c5.7-8,15.2-7.8,21.2-3.5C558.1,48.5,550.7,76,550.7,76l0,0c0,0,22.9-16.4,42.7-2.2c7.7,5.5,7.9,15.1,3.5,21.2
		c-8.9,12.4-23.9,16.8-39.8,20.5c-9.5,2.3-23.2,4.9-34.2,6.9l-54.5,5.1c1,6.5,1.7,13.5,2.2,16l0.8,4.1l1.4,5.8l9.9-1.2
		c8.2-1.2,63.6-6.3,81.4-10.6c20-4.8,40.6-11.1,54.7-30.8C632.3,91.9,627.9,65.7,609,52.1z"/>
</g>
</svg>
